<?xml version="1.0" encoding="UTF-8" standalone="no" ?>
<!DOCTYPE svg PUBLIC "-//W3C//DTD SVG 1.1//EN" "http://www.w3.org/Graphics/SVG/1.1/DTD/svg11.dtd">
<svg xmlns="http://www.w3.org/2000/svg" xmlns:xlink="http://www.w3.org/1999/xlink" version="1.1" width="163" height="25" viewBox="0 0 163 25" xml:space="preserve">
<desc>Created with Fabric.js 4.6.0</desc>
<defs>
</defs>
<g transform="matrix(1 0 0 1 219.97 172.17)" id="vgnK_Qaey1ulmkyDFB9l6"  >
<path style="stroke: rgb(0,0,0); stroke-width: 1; stroke-dasharray: none; stroke-linecap: butt; stroke-dashoffset: 0; stroke-linejoin: miter; stroke-miterlimit: 4; fill: rgb(255,255,255); fill-opacity: 0; fill-rule: nonzero; opacity: 1;" vector-effect="non-scaling-stroke"  transform=" translate(0, 0)" d="M 0 0" stroke-linecap="round" />
</g>
<g transform="matrix(1 0 0 1 8.09 12.14)" id="uKwIehOANHthK2mLliT48"  >
<path style="stroke: rgb(0,0,0); stroke-width: 1; stroke-dasharray: none; stroke-linecap: round; stroke-dashoffset: 0; stroke-linejoin: miter; stroke-miterlimit: 4; fill: rgb(0,0,0); fill-rule: nonzero; opacity: 1;" vector-effect="non-scaling-stroke"  transform=" translate(-30.92, -37.06)" d="M 36.2545 26.1215 L 37.8451 28.7062 L 26.8105 47.9919 L 24 47.9919 L 36.2545 26.1215 Z" stroke-linecap="round" />
</g>
<g transform="matrix(1 0 0 1 18.62 12.14)" id="sZszFhEuI5QKGysODopSV"  >
<path style="stroke: none; stroke-width: 1; stroke-dasharray: none; stroke-linecap: butt; stroke-dashoffset: 0; stroke-linejoin: miter; stroke-miterlimit: 4; fill: rgb(0,0,0); fill-rule: nonzero; opacity: 1;" vector-effect="non-scaling-stroke"  transform=" translate(-41.45, -37.06)" d="M 41.4742 26 L 54 48.1134 L 43.6613 48.1134 L 43.6613 44.0154 L 47.0909 44.0154 L 41.4742 34.2235 L 35.7084 44.0154 L 39.1878 44.0154 L 39.1878 48.1134 L 28.8988 48.1134 L 41.5958 26" stroke-linecap="round" />
</g>
<g transform="matrix(1 0 0 1 18.62 12.14)" id="QAu6lE82XjyKvjU683pBk"  >
<path style="stroke: rgb(0,0,0); stroke-width: 1; stroke-dasharray: none; stroke-linecap: round; stroke-dashoffset: 0; stroke-linejoin: miter; stroke-miterlimit: 4; fill: none; fill-rule: nonzero; opacity: 1;" vector-effect="non-scaling-stroke"  transform=" translate(-41.45, -37.06)" d="M 41.4742 26 L 54 48.1134 L 43.6613 48.1134 L 43.6613 44.0154 L 47.0909 44.0154 L 41.4742 34.2235 L 35.7084 44.0154 L 39.1878 44.0154 L 39.1878 48.1134 L 28.8988 48.1134 L 41.5958 26" stroke-linecap="round" />
</g>
<g transform="matrix(1 0 0 1 93.31 14.25)" id="0w-5-o23ikyv0W-956MbR"  >
<path style="stroke: none; stroke-width: 1; stroke-dasharray: none; stroke-linecap: butt; stroke-dashoffset: 0; stroke-linejoin: miter; stroke-miterlimit: 4; fill: rgb(255,255,255); fill-rule: nonzero; opacity: 1;" vector-effect="non-scaling-stroke"  transform=" translate(-116.14, -39.17)" d="M 48.54 32.348 L 52.28 32.348 L 58.352 42.622 L 58.352 32.348 L 61.278 32.348 L 61.278 47 L 57.582 47 L 51.466 36.66 L 51.466 47 L 48.54 47 L 48.54 32.348 Z M 65.5625 30.94 L 69.1045 30.94 L 69.1045 33.8 L 65.5625 33.8 L 65.5625 30.94 Z M 63.8465 44.338 L 65.9585 44.338 L 65.9585 38.332 L 63.8465 38.332 L 63.8465 35.67 L 69.0605 35.67 L 69.0605 44.338 L 70.9525 44.338 L 70.9525 47 L 63.8465 47 L 63.8465 44.338 Z M 78.0733 47.33 C 76.1959 47.33 74.7366 46.8313 73.6953 45.834 C 72.6686 44.8367 72.1553 43.4287 72.1553 41.61 C 72.1553 40.378 72.3973 39.2927 72.8813 38.354 C 73.3653 37.4007 74.0473 36.6673 74.9273 36.154 C 75.8073 35.626 76.8266 35.362 77.9853 35.362 C 78.5279 35.362 79.0926 35.428 79.6793 35.56 C 80.2806 35.6773 80.7426 35.8167 81.0653 35.978 L 80.4713 38.596 C 80.1339 38.4347 79.7599 38.31 79.3493 38.222 C 78.9533 38.1193 78.5793 38.068 78.2273 38.068 C 77.3179 38.068 76.5846 38.376 76.0273 38.992 C 75.4846 39.608 75.2133 40.422 75.2133 41.434 C 75.2133 42.4607 75.4919 43.2527 76.0493 43.81 C 76.6213 44.3673 77.4279 44.646 78.4693 44.646 C 79.1586 44.646 79.8993 44.514 80.6913 44.25 L 81.1533 46.758 C 80.1999 47.1393 79.1733 47.33 78.0733 47.33 Z M 88.4922 47.33 C 87.3482 47.33 86.3362 47.0807 85.4562 46.582 C 84.5908 46.0833 83.9162 45.3867 83.4322 44.492 C 82.9482 43.5827 82.7062 42.534 82.7062 41.346 C 82.7062 40.158 82.9408 39.1167 83.4102 38.222 C 83.8942 37.3127 84.5688 36.6087 85.4342 36.11 C 86.3142 35.6113 87.3262 35.362 88.4702 35.362 C 89.6142 35.362 90.6188 35.6113 91.4842 36.11 C 92.3642 36.594 93.0388 37.2833 93.5082 38.178 C 93.9922 39.0727 94.2342 40.1067 94.2342 41.28 C 94.2342 42.468 93.9922 43.524 93.5082 44.448 C 93.0388 45.3573 92.3642 46.0687 91.4842 46.582 C 90.6188 47.0807 89.6215 47.33 88.4922 47.33 Z M 88.4702 44.646 C 89.2622 44.646 89.8928 44.3453 90.3622 43.744 C 90.8462 43.128 91.0882 42.3213 91.0882 41.324 C 91.0882 40.3267 90.8462 39.5347 90.3622 38.948 C 89.8928 38.3467 89.2622 38.046 88.4702 38.046 C 87.6782 38.046 87.0402 38.3467 86.5562 38.948 C 86.0868 39.5347 85.8522 40.3267 85.8522 41.324 C 85.8522 42.3213 86.0868 43.128 86.5562 43.744 C 87.0402 44.3453 87.6782 44.646 88.4702 44.646 Z M 95.5978 44.338 L 97.5998 44.338 L 97.5998 33.58 L 95.7078 33.58 L 95.7078 30.94 L 100.702 30.94 L 100.702 44.338 L 102.704 44.338 L 102.704 47 L 95.5978 47 L 95.5978 44.338 Z M 107.761 47.33 C 106.587 47.33 105.656 46.8313 104.967 45.834 C 104.277 44.8367 103.933 43.48 103.933 41.764 C 103.933 39.6813 104.461 38.0973 105.517 37.012 C 106.573 35.912 108.091 35.362 110.071 35.362 C 111.185 35.362 112.491 35.538 113.987 35.89 L 113.987 47 L 111.039 47 L 111.105 45.196 L 111.017 45.196 C 110.635 45.8853 110.166 46.4133 109.609 46.78 C 109.066 47.1467 108.45 47.33 107.761 47.33 Z M 108.421 44.624 C 108.875 44.624 109.323 44.382 109.763 43.898 C 110.203 43.414 110.613 42.7687 110.995 41.962 L 110.995 38.266 C 110.525 38.134 110.056 38.068 109.587 38.068 C 108.707 38.068 108.039 38.3687 107.585 38.97 C 107.145 39.5713 106.925 40.4587 106.925 41.632 C 106.925 42.556 107.057 43.2893 107.321 43.832 C 107.585 44.36 107.951 44.624 108.421 44.624 Z M 120.007 47.33 C 119.288 47.33 118.591 47.2567 117.917 47.11 C 117.257 46.9633 116.692 46.7653 116.223 46.516 L 116.509 43.876 C 117.007 44.184 117.557 44.4333 118.159 44.624 C 118.76 44.8147 119.325 44.91 119.853 44.91 C 120.351 44.91 120.769 44.822 121.107 44.646 C 121.444 44.4553 121.613 44.184 121.613 43.832 C 121.613 43.5533 121.495 43.3407 121.261 43.194 C 121.026 43.0327 120.579 42.8347 119.919 42.6 L 119.325 42.38 C 118.694 42.1453 118.181 41.9253 117.785 41.72 C 117.389 41.5 117.029 41.17 116.707 40.73 C 116.384 40.29 116.223 39.7107 116.223 38.992 C 116.223 37.848 116.648 36.9607 117.499 36.33 C 118.364 35.6847 119.486 35.362 120.865 35.362 C 121.95 35.362 123.094 35.5747 124.297 36 L 123.879 38.618 C 123.453 38.3687 122.969 38.1707 122.427 38.024 C 121.899 37.8627 121.4 37.782 120.931 37.782 C 120.447 37.782 120.058 37.8627 119.765 38.024 C 119.486 38.1853 119.347 38.42 119.347 38.728 C 119.347 39.0213 119.464 39.2413 119.699 39.388 C 119.933 39.5347 120.329 39.7033 120.887 39.894 C 121.327 40.0553 121.583 40.1507 121.657 40.18 C 122.273 40.4293 122.786 40.6713 123.197 40.906 C 123.607 41.1407 123.967 41.4927 124.275 41.962 C 124.583 42.4167 124.737 43.0033 124.737 43.722 C 124.737 44.9247 124.304 45.8267 123.439 46.428 C 122.573 47.0293 121.429 47.33 120.007 47.33 Z M 134.768 36.66 L 133.844 47 L 131.006 47 L 132.392 32.348 L 136.352 32.348 L 140.092 42.864 L 143.722 32.348 L 147.682 32.348 L 149.024 47 L 146.164 47 L 145.152 36.704 L 141.28 47.154 L 138.662 47.396 L 134.768 36.66 Z M 156.837 47.33 C 155.003 47.33 153.559 46.802 152.503 45.746 C 151.461 44.69 150.941 43.2233 150.941 41.346 C 150.941 40.1287 151.168 39.0727 151.623 38.178 C 152.077 37.2687 152.715 36.572 153.537 36.088 C 154.373 35.604 155.348 35.362 156.463 35.362 C 158.105 35.362 159.367 35.89 160.247 36.946 C 161.127 38.002 161.567 39.5273 161.567 41.522 C 161.567 41.8593 161.559 42.1087 161.545 42.27 L 154.065 42.27 C 154.211 43.0473 154.549 43.6413 155.077 44.052 C 155.605 44.448 156.316 44.646 157.211 44.646 C 157.753 44.646 158.318 44.58 158.905 44.448 C 159.491 44.3013 160.005 44.1107 160.445 43.876 L 160.951 46.362 C 160.364 46.67 159.711 46.9047 158.993 47.066 C 158.289 47.242 157.57 47.33 156.837 47.33 Z M 158.597 39.938 C 158.553 39.3073 158.333 38.8087 157.937 38.442 C 157.541 38.0607 157.013 37.87 156.353 37.87 C 155.722 37.87 155.201 38.0533 154.791 38.42 C 154.395 38.7867 154.145 39.2927 154.043 39.938 L 158.597 39.938 Z M 163.078 44.954 L 168.512 38.332 L 163.452 38.332 L 163.452 35.67 L 172.296 35.67 L 172.296 37.694 L 166.884 44.338 L 172.296 44.338 L 172.296 46.978 L 163.078 46.978 L 163.078 44.954 Z M 177.521 47.33 C 176.347 47.33 175.416 46.8313 174.727 45.834 C 174.037 44.8367 173.693 43.48 173.693 41.764 C 173.693 39.6813 174.221 38.0973 175.277 37.012 C 176.333 35.912 177.851 35.362 179.831 35.362 C 180.945 35.362 182.251 35.538 183.747 35.89 L 183.747 47 L 180.799 47 L 180.865 45.196 L 180.777 45.196 C 180.395 45.8853 179.926 46.4133 179.369 46.78 C 178.826 47.1467 178.21 47.33 177.521 47.33 Z M 178.181 44.624 C 178.635 44.624 179.083 44.382 179.523 43.898 C 179.963 43.414 180.373 42.7687 180.755 41.962 L 180.755 38.266 C 180.285 38.134 179.816 38.068 179.347 38.068 C 178.467 38.068 177.799 38.3687 177.345 38.97 C 176.905 39.5713 176.685 40.4587 176.685 41.632 C 176.685 42.556 176.817 43.2893 177.081 43.832 C 177.345 44.36 177.711 44.624 178.181 44.624 Z" stroke-linecap="round" />
</g>
</svg>